<?xml version="1.0" standalone="no"?><!DOCTYPE svg PUBLIC "-//W3C//DTD SVG 1.1//EN" "http://www.w3.org/Graphics/SVG/1.1/DTD/svg11.dtd"><svg t="1675937749628" class="icon" viewBox="0 0 1024 1024" version="1.1" xmlns="http://www.w3.org/2000/svg" p-id="1170" xmlns:xlink="http://www.w3.org/1999/xlink" width="200" height="200"><path d="M510.26993067 326.19051627c-104.54423573 0-189.5981728 84.0988512-189.5981728 187.469696 0 103.37521067 85.05393707 187.4806112 189.5981728 187.4806112 10.17302827 0 20.9289312-1.04349973 33.91700693-3.2942272 19.4095264-3.50052587 32.31027947-21.90803093 28.76063467-41.03594347-3.11958293-16.7811296-17.8060736-28.96256747-34.93103467-28.96256747-2.20925013 0-4.437056 0.20957333-6.53169493 0.60143147-8.46697173 1.4964832-15.18204373 2.193968-21.12758934 2.193968-65.23727147 0-118.3094784-52.48169067-118.3094784-116.9832736 0-64.4983072 52.9914336-116.97235733 118.1304672-116.97235733 65.1914272 0 118.22106453 52.47405013 118.22106454 116.97235733 0 6.28501013-0.70076053 12.88874667-2.22780587 20.833968-3.5496448 19.12354667 9.35438293 37.5354176 28.7562688 41.02830187 2.1404832 0.3842176 4.31480427 0.58287573 6.47493547 0.58287573 17.28432427 0 32.02102507-12.192352 35.02163093-28.92436373 2.28129067-12.21527467 3.347712-22.864208 3.347712-33.51314134 0.04584427-49.99846827-19.66494293-97.05636373-55.5019456-132.50478186C608.43419307 345.7135616 560.84363307 326.19051627 510.26993067 326.19051627z" fill="#2c2c2c" p-id="1171"></path><path d="M966.90790507 427.51911467c-2.3315008-12.18798613-11.7732064-21.86655253-24.06816214-24.661952-44.703472-10.14246507-81.90051627-37.2581696-104.7308864-76.32063254-22.7572384-38.99806293-27.93762347-84.37282453-14.60244266-127.6900576 3.763584-11.86489387 0.00764053-24.78420373-9.5486752-32.8964288-44.65107947-38.1030112-95.50530347-67.13434453-151.1415072-86.27753813-3.36299307-1.16138453-6.8667936-1.74862613-10.4284448-1.74862613-8.80643627 0-17.2614016 3.65988907-23.1731104 10.00165866-31.1860064 33.11364267-73.43026987 51.34977813-118.94474667 51.34977814-45.51884267 0-87.79257707-18.2666976-119.0484416-51.44583254-8.40257173-8.88939307-21.87746773-12.27967467-33.6856032-8.24211733-55.98221653 19.38332907-106.80697067 48.4441344-151.08365547 86.3877824-9.40350187 8.09803627-13.1441632 20.9289312-9.5301184 32.71741867 13.42577707 43.3554368 8.2770464 88.72583253-14.50420586 127.766464-22.7266752 39.03626667-59.89315627 66.13996373-104.71888 76.33263893-12.3102368 2.89036267-21.75630827 12.5994912-24.0637952 24.71107093-5.57660907 28.9811232-8.40257173 57.96988693-8.40257174 86.15528747 0 28.1886752 2.82596267 57.17743893 8.39820587 86.14764587 2.3194944 12.17270507 11.75792427 21.85454613 24.05615467 24.661952 44.70783893 10.14683093 81.90488213 37.25052907 104.738528 76.31735786 22.77251947 39.032992 27.9223424 84.40338667 14.48892373 127.78174614-3.58784747 11.7011648 0.1298912 24.54734187 9.5715968 32.8091072 44.639072 38.08772907 95.46055147 67.11469653 151.10657813 86.29609386 12.23055573 4.14452693 25.32123413 0.58614933 33.55134507-8.1929984 31.25149867-33.1638528 73.52086613-51.4305504 119.03316053-51.4305504s87.7893024 18.2666976 118.99823147 51.3956224c5.92698987 6.3526848 14.3939616 10.00602453 23.23423573 10.00602454 3.49616 0 6.9737632-0.5555872 10.48520427-1.70605654 55.6012736-19.16611627 106.42602773-48.19635733 151.09566293-86.30700906 9.3773056-8.08275413 13.12888213-20.93657173 9.53776-32.8091072-13.43778453-43.39036587-8.26176533-88.75312 14.58388694-127.75882347 22.7463232-39.0668288 59.93900053-66.16616 104.738528-76.31735787 12.1497824-2.76483733 21.58493867-12.40956587 24.05288-24.64667093 5.5722432-28.99640427 8.3949312-57.98189333 8.3949312-86.15528747C975.2984704 485.51629013 972.4768736 456.4969632 966.90790507 427.51911467zM743.01069227 808.4040512c-27.761888 21.50089067-58.38575893 38.9904224-91.18613334 52.07346027-39.12795413-34.2870336-89.17554133-53.0984032-141.6452256-53.0984032-52.1880704 0-102.228016 18.8113696-141.61902826 53.10604373-32.79382507-13.0797632-63.42097067-30.5660192-91.1904992-52.06691093 10.5539712-50.6042656 2.01495787-102.8796576-24.28100907-147.8691104-26.07875413-44.7645984-67.65609387-78.2286208-117.53231147-94.7630656-2.53998293-17.4327712-3.82361813-34.94194987-3.82361813-52.12694507 0-17.11295467 1.2836352-34.61449173 3.82361813-52.10838933 49.72012907-16.4154688 91.28982827-49.87621653 117.53231147-94.7739808 26.1584352-44.82572373 34.69417387-97.10220693 24.265728-147.86146987 27.75861333-21.49325013 58.38466667-38.9795072 91.19377387-52.0701856 39.27640213 34.34815893 89.32071467 53.18572587 141.62994346 53.18572587 52.47405013 0 102.5172704-18.8113696 141.6452256-53.0984032 32.80146667 13.08740373 63.42097067 30.5736608 91.179584 52.06691093-10.46337387 50.809472-1.9581984 103.07722453 24.1784064 147.86146987 26.07547947 44.7645984 67.64408747 78.23298667 117.52794454 94.7739808 2.53998293 17.47861547 3.82361813 34.98779413 3.82361813 52.20335146 0.15281387 16.47331947-1.1002592 33.91700693-3.7330208 51.94793494-49.88058347 16.53771947-91.45355733 49.99846827-117.53231147 94.75869973C741.167104 705.268976 732.6357312 757.53672853 743.01069227 808.4040512z" p-id="1172"></path></svg>