<?xml version="1.0" standalone="no"?><!DOCTYPE svg PUBLIC "-//W3C//DTD SVG 1.1//EN" "http://www.w3.org/Graphics/SVG/1.1/DTD/svg11.dtd"><svg t="1675937770437" class="icon" viewBox="0 0 1024 1024" version="1.1" xmlns="http://www.w3.org/2000/svg" p-id="1469" xmlns:xlink="http://www.w3.org/1999/xlink" width="200" height="200"><path d="M891.74791906 305.35581219L752.64878 305.35581219c1.454505-1.79922 2.89273219-3.70185469 4.31276531-5.73184219 26.57272594-37.99332 40.15640625-82.0766025 38.24802656-124.12989844-0.97286156-21.44700844-5.90132625-41.32460625-14.64655031-59.0783775-9.42220594-19.12784344-22.78948125-34.83343406-39.7312575-46.68204937C723.89094406 57.88407219 704.55244156 50.71591906 683.35343656 48.42643719c-19.67651438-2.12669906-40.03862813 0.064155-60.51852 6.50649281-40.15640625 12.63284156-76.90588031 40.51452656-103.47860625 78.50688937-2.32491 3.32362594-4.54353281 6.69704344-6.66831656 10.1087625-2.12382656-3.41171906-4.34340656-6.7851375-6.66831656-10.1087625-26.57272594-37.99332-63.32220094-65.87404781-103.47860625-78.50688937-20.47989187-6.443295-40.84200562-8.63319187-60.51852-6.50649281-21.199005 2.28948094-40.5375075 9.457635-57.47832657 21.30624937C267.60244625 81.58130188 254.23421375 97.28785063 244.81200781 116.41569406c-8.74618125 17.75472938-13.67368875 37.63137-14.64655031 59.0783775-1.90837969 42.053295 11.67529969 86.13753562 38.24802656 124.12989844 1.42003406 2.0299875 2.85826031 3.93262219 4.31276532 5.73184219L127.08518844 305.35581219c-47.09283469 0-85.40597344 38.31313875-85.40597344 85.40597343l0 53.96415c0 47.09283469 38.31313875 85.40597344 85.40597344 85.40597344l4.11934218 0 0 353.51176875c0 47.09379188 38.31313875 85.40597344 85.40597344 85.40597344l590.87761875 0c47.09283469 0 85.40501625-38.31313875 85.40501625-85.40597344L892.89313906 530.11754656c46.56618656-0.61665656 84.25979719-38.68179281 84.25979719-85.39161093l0-53.96415C977.15389344 343.66895094 938.84075375 305.35581219 891.74791906 305.35581219zM570.35974344 169.11206c17.25776531-27.78976125 44.01816937-46.27126406 71.15393062-54.80774437 9.39443719-2.95497188 18.54565781-4.42096781 27.21044907-4.42096782 13.67464594 0 26.1380025 3.65014687 36.43635843 10.85181469 16.82399906 11.76722437 26.72306063 32.21551688 27.87402469 57.57886875 1.28980781 28.41695062-11.02129969 64.01546063-35.63010844 85.56875531-54.03596625 47.32743188-118.69680938 44.17712156-135.52080843 32.40989719C549.27468594 287.4766025 535.58663375 225.10524031 570.35974344 169.11206zM292.34148125 178.31498844c1.150965-25.36335187 11.05002562-45.81260156 27.87402469-57.57886875 10.29835594-7.202625 22.7617125-10.85181469 36.43635843-10.85181469 8.66479031 0 17.81601188 1.46503781 27.21044907 4.42096781 27.13480313 8.5374375 53.89616531 27.01798313 71.15393062 54.80774438 34.77215156 55.99318031 21.0850575 118.36358438 8.476155 127.18158187-16.82399906 11.76722437-81.48484219 14.91753469-135.52080843-32.40989718C303.36278094 242.33044906 291.05167344 206.73193906 292.34148125 178.31498844zM103.92035094 444.72593563l0-53.96415c0-12.77359969 10.392195-23.16579469 23.16579468-23.16579469l351.93086813 0 0 100.29573937L127.08518844 467.89173031C114.31254594 467.89173031 103.92035094 457.50049344 103.92035094 444.72593563zM193.44566656 883.64367875L193.44566656 530.13190906l285.57134719 0 0 376.67756344-262.40459531 0C203.83786156 906.80947344 193.44566656 896.41727844 193.44566656 883.64367875zM807.48908 906.80947344L543.64721563 906.80947344l-1e-8-376.67756344 287.00670094 0 0 353.51176875C830.6539175 896.41727844 820.26267969 906.80947344 807.48908 906.80947344zM914.91371375 444.72593563c0 12.77359969-10.39315219 23.16579469-23.16579469 23.16579468L543.64721563 467.89173031 543.64721563 367.59599094l348.10070343 0c12.77359969 0 23.16579469 10.392195 23.16579469 23.16579468L914.91371375 444.72593563z" p-id="1470"></path></svg>