<?xml version="1.0" standalone="no"?><!DOCTYPE svg PUBLIC "-//W3C//DTD SVG 1.1//EN" "http://www.w3.org/Graphics/SVG/1.1/DTD/svg11.dtd"><svg t="1676018192228" class="icon" viewBox="0 0 1024 1024" version="1.1" xmlns="http://www.w3.org/2000/svg" p-id="7134" xmlns:xlink="http://www.w3.org/1999/xlink" width="200" height="200"><path d="M311.037414 481.040808H161.264485C84.547232 481.040808 22.133657 418.611717 22.133657 341.868606V192.050424C22.133657 115.312485 84.547232 52.876929 161.264485 52.876929h149.767757c76.722424 0 139.137293 62.434263 139.137293 139.172202v149.818182c0 76.744404-62.414869 139.173495-139.132121 139.173495zM161.264485 119.151192c-40.186828 0-72.878545 32.702061-72.878546 72.899232v149.818182c0 40.197172 32.696889 72.899232 72.878546 72.899232h149.767757c40.186828 0 72.878545-32.702061 72.878546-72.899232V192.050424c0-40.197172-32.691717-72.899232-72.878546-72.899232H161.264485z m149.772929 882.561293H161.264485C84.547232 1001.712485 22.133657 939.278222 22.133657 862.535111V712.722101c0-76.741818 62.413576-139.177374 139.130828-139.177374h149.767757c76.722424 0 139.137293 62.434263 139.137293 139.177374v149.81301c0 76.743111-62.414869 139.177374-139.132121 139.177374zM161.264485 639.816404c-40.186828 0-72.878545 32.702061-72.878546 72.905697v149.81301c0 40.197172 32.696889 72.899232 72.878546 72.899232h149.767757c40.186828 0 72.878545-32.702061 72.878546-72.899232V712.722101c0-40.203636-32.691717-72.905697-72.878546-72.905697H161.264485z m0 0" p-id="7135"></path><path d="M756.957091 511.939232c-37.248 0-72.186828-14.429091-98.384162-40.631596l-105.903838-105.933575c-26.192162-26.207677-40.621253-61.156848-40.621253-98.413899 0-37.258343 14.429091-72.207515 40.621253-98.410021l105.903838-105.938747C684.770263 36.408889 719.709091 21.979798 756.957091 21.979798s72.186828 14.429091 98.384162 40.636768l105.898666 105.933575c26.197333 26.202505 40.626424 61.151677 40.626424 98.410021 0 37.257051-14.429091 72.206222-40.626424 98.413899l-105.898666 105.933575c-26.197333 26.202505-61.137455 40.631596-98.384162 40.631596z m0-423.686464c-19.550384 0-37.853091 7.540364-51.534869 21.227313l-105.898666 105.933576c-28.418586 28.425051-28.418586 74.671838 0 103.096888l105.898666 105.933576c13.681778 13.686949 31.984485 21.227313 51.534869 21.227313s37.847919-7.540364 51.529697-21.227313l105.903838-105.933576c28.414707-28.425051 28.414707-74.671838 0-103.096888l-105.903838-105.933576c-13.676606-13.686949-31.979313-21.227313-51.529697-21.227313z m0 0" p-id="7136"></path><path d="M831.84097 1001.712485H682.073212c-76.717253 0-139.130828-62.434263-139.130828-139.177374V712.722101c0-76.741818 62.413576-139.177374 139.130828-139.177374h149.767758c76.717253 0 139.130828 62.434263 139.130828 139.177374v149.81301c0 76.743111-62.413576 139.177374-139.130828 139.177374zM682.073212 639.816404c-40.186828 0-72.878545 32.702061-72.878545 72.905697v149.81301c0 40.197172 32.691717 72.899232 72.878545 72.899232h149.767758c40.186828 0 72.878545-32.702061 72.878545-72.899232V712.722101c0-40.203636-32.691717-72.905697-72.878545-72.905697H682.073212z m0 0" p-id="7137"></path></svg>