<?xml version="1.0" standalone="no"?><!DOCTYPE svg PUBLIC "-//W3C//DTD SVG 1.1//EN" "http://www.w3.org/Graphics/SVG/1.1/DTD/svg11.dtd"><svg t="1675937810921" class="icon" viewBox="0 0 1024 1024" version="1.1" xmlns="http://www.w3.org/2000/svg" p-id="2788" xmlns:xlink="http://www.w3.org/1999/xlink" width="200" height="200"><path d="M841.9555552 238.93333333a34.13333333 34.13333333 0 0 1 68.26666667 0v603.02222187c0 69.12-56.0355552 125.1555552-125.1555552 125.15555627H238.93333333c-69.12 0-125.1555552-56.0355552-125.1555552-125.15555627V182.0444448c0-69.12 56.0355552-125.1555552 125.1555552-125.15555627h637.1555552a34.13333333 34.13333333 0 0 1 0 68.26666667H238.93333333a56.88888853 56.88888853 0 0 0-56.88888853 56.8888896v659.9111104a56.88888853 56.88888853 0 0 0 56.88888853 56.8888896h546.13333334a56.88888853 56.88888853 0 0 0 56.88888853-56.8888896V238.93333333zM329.9555552 432.3555552a34.13333333 34.13333333 0 0 1 0-68.26666667h364.0888896a34.13333333 34.13333333 0 0 1 0 68.26666667H329.9555552z m0 182.0444448a34.13333333 34.13333333 0 0 1 0-68.26666667h227.55555627a34.13333333 34.13333333 0 0 1 0 68.26666667H329.9555552z" p-id="2789"></path></svg>