<?xml version="1.0" standalone="no"?><!DOCTYPE svg PUBLIC "-//W3C//DTD SVG 1.1//EN" "http://www.w3.org/Graphics/SVG/1.1/DTD/svg11.dtd"><svg t="1675937798038" class="icon" viewBox="0 0 1024 1024" version="1.1" xmlns="http://www.w3.org/2000/svg" p-id="2350" xmlns:xlink="http://www.w3.org/1999/xlink" width="200" height="200"><path d="M260.62559901 109.8009587v50.27488109c0 27.95283284 22.422597 50.27487962 50.0235062 50.2748796h402.70178958c27.14843525 0 50.02350621-22.52314579 50.0235062-50.2748796V109.8009587h100.80113411C919.57845248 109.8009587 964.47392089 154.54560251 964.47392089 210.35071939v653.57344082c0 55.55374203-44.89546842 100.54976068-100.29838579 100.54976068H159.8244649A100.24811141 100.24811141 0 0 1 59.52607911 863.92416021V210.35071939c0-55.55374203 44.89546842-100.54976068 100.29838579-100.54976069H260.62559901z m-50.27487962 467.10391102c129.40754138-8.99920403 230.81197404-23.27726898 304.2635739-42.83419784 62.94414939 18.09895683 141.67461162 31.57262421 236.09083791 40.62210409H270.68057552V813.64928061h388.22262413c66.41311613 0 98.79013939-26.2937618 97.03051809-78.93156128v-160.02494336c7.0384837 1.50824641 16.59071043 2.21209521 28.85778217 2.21209375 12.26707025 1.50824641 21.86957285 2.2623696 28.8577807 2.26236961V525.07146933c-75.21122112-4.52473921-139.9149918-13.52394324-194.06103768-27.04788648 48.91745785-21.06517525 97.0305181-54.84989468 144.23863197-101.45470706v-60.83260592h-288.57781273c1.75962129-3.01649281 5.2788624-7.54123201 10.55772481-13.57421761 3.46896672-4.52473921 6.08326001-8.24508082 7.8428813-11.26157216H367.71109362c-29.66217977 42.08007465-79.53485983 69.12795966-149.46721854 81.14365648v47.35893705c31.47207543-1.50824641 59.42490828-4.52473921 83.95905027-9.04947842 33.18142087 25.58991447 68.17273741 47.35893705 104.87339939 65.40761803-47.25838681 10.55772482-112.76655654 20.31105205-196.72560535 29.31025609v51.83340039z m205.02096057-141.97626091H361.17535969c13.12174371-6.73683442 25.4893642-14.57971571 36.95203689-23.47836949H612.54976068c-32.87977159 40.21990457-69.02741088 73.7532491-108.44291636 100.54976068a910.22670419 910.22670419 0 0 1-88.73516436-77.07139119zM361.17535969 713.0995199h100.54976069v40.06907995h-100.54976069V713.0995199z m301.64928062-100.54975922v40.06907848h-100.54976069V612.54976068h100.54976069z m-34.48856826 140.61883917H562.27487962V713.0995199h100.54976069v11.76432195c0 18.85308003-11.51294705 28.30475798-34.48856826 28.304758zM361.17535969 612.54976068h100.54976069v40.06907848h-100.54976069V612.54976068z" p-id="2351"></path><path d="M763.37440099 310.9004801V159.92501516A50.27487962 50.27487962 0 0 0 713.35089479 109.8009587h-402.70178958c-27.14843525 0-50.02350621 22.422597-50.0235062 50.12405646V310.9004801a50.22460522 50.22460522 0 0 1-50.27487962-50.27488109V109.8009587c0-27.75173381 22.92534531-50.27487962 50.37542987-50.27487959h502.54770148A50.22460522 50.22460522 0 0 1 813.64928061 109.8009587v150.82464031c0 27.75173381-22.82479508 50.22460522-50.27487962 50.27488109z" p-id="2352"></path></svg>