<?xml version="1.0" standalone="no"?><!DOCTYPE svg PUBLIC "-//W3C//DTD SVG 1.1//EN" "http://www.w3.org/Graphics/SVG/1.1/DTD/svg11.dtd"><svg t="1675937806335" class="icon" viewBox="0 0 1024 1024" version="1.1" xmlns="http://www.w3.org/2000/svg" p-id="2645" xmlns:xlink="http://www.w3.org/1999/xlink" width="200" height="200"><path d="M919.68 704H292.48l-160-576H28.8V64h152.32l160 576h525.12l52.16-288H412.8V288h582.4l-75.52 416zM380.8 960a96 96 0 1 1 96-96 96 96 0 0 1-96 96z m0-128a32 32 0 1 0 32 32 32 32 0 0 0-32-32zM796.8 960a96 96 0 1 1 96-96 96 96 0 0 1-96 96z m0-128a32 32 0 1 0 32 32 32 32 0 0 0-32-32z" p-id="2646"></path><path d="M476.8 416h64v160h-64zM668.8 416h64v160h-64z" p-id="2647"></path></svg>