<?xml version="1.0" standalone="no"?><!DOCTYPE svg PUBLIC "-//W3C//DTD SVG 1.1//EN" "http://www.w3.org/Graphics/SVG/1.1/DTD/svg11.dtd"><svg t="1675938722431" class="icon" viewBox="0 0 1024 1024" version="1.1" xmlns="http://www.w3.org/2000/svg" p-id="1262" xmlns:xlink="http://www.w3.org/1999/xlink" width="200" height="200"><path d="M906.24 110.592H458.752c-52.736 0-95.744 43.008-95.744 95.744v45.568h-97.28c-34.816 0-67.584 15.36-90.112 42.496l-131.072 158.72c-17.408 20.992-26.624 47.104-26.624 74.24v281.088c0 54.784 44.544 99.84 99.84 99.84h67.072c2.048 0 3.584-1.024 5.12-1.024 14.336 46.592 56.832 80.384 108.032 80.384 50.688 0 93.184-33.792 107.52-79.36h225.28c0.512 0 1.024-0.512 2.048-0.512 14.336 46.08 56.832 79.872 108.032 79.872 50.688 0 93.184-33.28 107.52-79.36h53.248c54.784 0 99.84-44.544 99.84-99.84V205.824c0-52.736-42.496-95.232-95.232-95.232zM431.616 205.824c0-14.848 12.288-27.136 27.136-27.136H906.24c14.848 0 27.136 12.288 27.136 27.136V549.888H458.752c-14.848 0-27.136-12.288-27.136-27.136V205.824zM297.984 918.528c-25.088 0-45.056-20.48-45.056-45.056 0-25.088 20.48-45.056 45.056-45.056s45.056 20.48 45.056 45.056c0.512 24.576-19.968 45.056-45.056 45.056z m442.88 0c-25.088 0-45.056-20.48-45.056-45.056 0-25.088 20.48-45.056 45.056-45.056 25.088 0 45.056 20.48 45.056 45.056 0 24.576-19.968 45.056-45.056 45.056z m161.28-79.36h-53.248c-14.336-46.08-56.832-79.36-107.52-79.36s-93.184 33.792-108.032 79.872c-0.512 0-1.024-0.512-2.048-0.512H406.528h-0.512c-14.336-46.08-56.832-79.36-107.52-79.36-51.2 0-93.696 33.792-108.032 80.384-2.048-0.512-3.584-1.024-5.12-1.024H117.248c-17.408 0-31.232-14.336-31.232-31.232v-281.088c0-11.264 4.096-22.016 11.264-30.72l131.072-158.72c9.216-11.264 23.04-17.408 37.376-17.408H363.52v202.752c0 52.736 43.008 95.744 95.744 95.744h474.624v189.44c-0.512 17.408-14.848 31.232-31.744 31.232z m-634.88-394.752c14.848 11.776 17.408 32.768 6.144 48.128l-54.784 71.168c-6.656 8.704-16.896 13.312-27.136 13.312-7.168 0-14.848-2.56-20.992-7.168-14.848-11.776-17.408-32.768-6.144-48.128L219.136 450.56c11.776-14.848 33.28-17.408 48.128-6.144z" p-id="1263"></path></svg>