<?xml version="1.0" standalone="no"?><!DOCTYPE svg PUBLIC "-//W3C//DTD SVG 1.1//EN" "http://www.w3.org/Graphics/SVG/1.1/DTD/svg11.dtd"><svg t="1675937765050" class="icon" viewBox="0 0 1024 1024" version="1.1" xmlns="http://www.w3.org/2000/svg" p-id="1317" xmlns:xlink="http://www.w3.org/1999/xlink" width="200" height="200"><path d="M838.934 35.152l-653.872 0c-35.168 0-63.7 28.531-63.7 63.699l0 826.297c0 35.168 28.532 63.699 63.7 63.699l653.872 0c35.212 0 63.701-28.532 63.701-63.699l0-826.297c0.001-35.169-28.49-63.699-63.701-63.699zM859.092 920.794c0 11.735-9.498 21.232-21.234 21.232l-653.293 0c-11.737 0-21.234-9.498-21.234-21.232l0-819.204c0-11.738 9.499-21.233 21.234-21.233l653.293 0c11.738 0 21.234 9.497 21.234 21.233l0 819.204zM463.797 649.852l-35.397-71.745-35.397 71.745-79.129 11.488 57.253 55.823-13.5 78.837 70.771-37.241 70.774 37.241-13.5-78.837 57.271-55.823zM300.564 156.417l424.675 0 0 44.251-424.675 0 0-44.251zM300.564 264.369l424.675 0 0 44.251-424.675 0 0-44.251zM300.564 369.667l424.675 0 0 44.251-424.675 0 0-44.251zM548.505 491.305c29.197 16.339 34.506 27.868 34.506 27.868l142.229 0 0-44.207-223.847 0c0 0 17.917 0 47.113 16.339zM426.412 497.069c-108.285 0-196.083 87.755-196.083 196.081 0 108.285 87.798 196.081 196.083 196.081 108.303 0 196.079-87.796 196.079-196.081 0-108.326-87.775-196.081-196.079-196.081zM426.412 862.691c-93.646 0-169.54-75.938-169.54-169.541 0-93.644 75.895-169.537 169.54-169.537 93.621 0 169.537 75.892 169.537 169.537 0 93.603-75.916 169.541-169.537 169.541z" p-id="1318"></path></svg>