<?xml version="1.0" standalone="no"?><!DOCTYPE svg PUBLIC "-//W3C//DTD SVG 1.1//EN" "http://www.w3.org/Graphics/SVG/1.1/DTD/svg11.dtd"><svg t="1675937775833" class="icon" viewBox="0 0 1024 1024" version="1.1" xmlns="http://www.w3.org/2000/svg" p-id="1615" xmlns:xlink="http://www.w3.org/1999/xlink" width="200" height="200"><path d="M866.09596811 420.01758557l0 524.12775477c0 14.16527872-9.44351915 23.60879908-28.33180021 23.60879908l0 4.72175958L700.83064991 972.475899l0-56.66235885 113.32471891 0L814.15536762 420.01758557l-113.32471893 0 0-56.66235885 165.2653182 0 0-94.4376794L700.83064991 268.91754732l0-56.66235886 193.59711839 0c14.16527872 0 28.3318002 14.16527872 28.3318002 28.3318002l0 0 0 151.10003825c0 14.16527872-14.16527872 28.3318002-28.3318002 28.3318002L866.09596811 420.01882832zM700.83064991 972.47714053L507.23353153 972.47714053 507.23353153 188.64638939l0 0 0 0c14.16527872 0 28.3318002-4.72175957 37.77532056-14.16527872 9.44351915-9.44351915 14.16527872-18.88703951 14.16527872-33.05355978l0 0 0 0 0 0 0 0c0-14.16527872-4.72175957-28.3318002-14.16527872-37.77532055-9.44351915-9.44351915-23.60879908-14.16527872-37.77532056-14.16527872l0 0 0 0 0-47.21883972 0 0 0 0c28.3318002 0 51.94059927 9.44351915 70.82763878 28.33180021s28.3318002 42.49708013 28.3318002 70.82763878l0 0 0 0 0 0 0 0c0 23.60879908-9.44351915 51.94059927-28.3318002 66.10587921 0 4.72175957 0 4.72175957-4.72175957 4.72175957l127.48999763 0 0 56.66235885L530.84357215 268.91754732l0 94.4376794 169.98707776 0 0 56.66235885L530.84357215 420.01758557l0 495.79595336 169.98707776 0L700.83064991 972.47714053zM507.23353153 972.47714053L346.68997291 972.47714053l0-56.66235884 136.93475954 0L483.62473245 420.01758557 346.68997291 420.01758557l0-56.66235885 136.93475954 0 0-94.4376794L346.68997291 268.91754732l0-56.66235886 99.15943898 0c-4.72175957 0-4.72175957 0-4.72175957-4.72175957-18.88703951-14.16527872-33.05355978-42.49708013-33.05355978-66.10587922l0 0 0 0 0 0 0 0c0-28.3318002 14.16527872-51.94059927 33.05355978-70.82763878 14.16527872-18.88703951 42.49708013-28.3318002 66.10587921-28.33180019l0 0 0 0 0 0 0 47.2188397 0 0 0 0 0 0c-14.16527872 0-23.60879908 4.72175957-33.05355978 14.16527872-9.44351915 9.44351915-14.16527872 23.60879908-14.16527872 37.77532055l0 0 0 0 0 0 0 0c0 14.16527872 4.72175957 23.60879908 14.16527872 33.05355978 9.44351915 9.44351915 18.88703951 14.16527872 33.05355978 14.16527872l0 0 0 0 0 0L507.23353153 972.47714053zM346.68997291 972.47714053L176.70289514 972.47714053c-14.16527872 0-28.3318002-14.16527872-28.3318002-28.33180019l0-4.72175957 0-519.40599399-23.60879908 0c-14.16527872 0-28.3318002-14.16527872-28.33180019-28.33180019L96.43049567 240.58698866c0-14.16527872 14.16527872-28.3318002 28.33180019-28.3318002l0 0 221.92767705 0 0 56.66235886L153.09409727 268.91754732l0 94.4376794 193.5971184 0 0 56.66235885L205.03469655 420.01758557l0 495.79595336 141.65651912 0L346.69121567 972.47714053z" p-id="1616"></path></svg>