<?xml version="1.0" standalone="no"?><!DOCTYPE svg PUBLIC "-//W3C//DTD SVG 1.1//EN"><svg class="icon" viewBox="0 0 1024 1024" version="1.1" xmlns="http://www.w3.org/2000/svg" xmlns:xlink="http://www.w3.org/1999/xlink" width="200" height="200"><path d="M451.28817778 64.93525333a95.77358222 95.77358222 0 0 1 121.42364444 0l417.46432 341.78844445a36.40888889 36.40888889 0 0 1-46.13006222 56.34275555L526.58176 121.27800889a22.95580445 22.95580445 0 0 0-29.16352 0L79.95392 463.06645333a36.40888889 36.40888889 0 1 1-46.13006222-56.34275555L451.28817778 64.93525333zM275.70631111 401.84490667c0-30.94755555 25.03111111-56.39736889 56.28814222-56.39736889h109.28128a56.32455111 56.32455111 0 0 1 56.26993778 56.39736889v109.84561778c0 30.94755555-25.01290667 56.37916445-56.26993778 56.37916444H331.95804445a56.32455111 56.32455111 0 0 1-56.28814223-56.37916444V401.86311111z m72.81777778 16.42040888v77.0048h76.20380444v-77.0048H348.52408889z m-185.43047111 42.05226667a36.40888889 36.40888889 0 0 1 36.40888889 36.40888889v349.52533334c0 24.21191111 19.47875555 43.49041778 43.07171555 43.49041777h536.48497778a43.27196445 43.27196445 0 0 0 43.05351111-43.49041777v-349.52533334a36.40888889 36.40888889 0 1 1 72.81777778 0v349.52533334c0 64.06144-51.70062222 116.30819555-115.88949334 116.30819555H242.57422222c-64.17066667 0-115.88949333-52.24675555-115.88949333-116.30819555v-349.52533334a36.40888889 36.40888889 0 0 1 36.40888889-36.40888889z m112.61269333 191.20128c0-30.96576 25.03111111-56.39736889 56.28814222-56.39736889h109.28128a56.32455111 56.32455111 0 0 1 56.26993778 56.39736889v109.84561778c0 30.94755555-25.01290667 56.37916445-56.26993778 56.37916445H331.95804445a56.32455111 56.32455111 0 0 1-56.28814223-56.37916445v-109.84561778z m72.81777778 16.42040889v77.0048h76.20380444v-77.0048H348.52408889z m175.54545778-16.42040889c0-30.96576 25.01290667-56.39736889 56.28814222-56.39736889h109.28128a56.32455111 56.32455111 0 0 1 56.26993778 56.39736889v109.84561778c0 30.94755555-25.01290667 56.37916445-56.26993778 56.37916445h-109.28128a56.32455111 56.32455111 0 0 1-56.28814222-56.37916445v-109.84561778z m72.81777778 16.42040889v77.0048h76.20380444v-77.0048h-76.20380444z"></path></svg>
