<?xml version="1.0" encoding="UTF-8"?>
<svg width="1440px" height="1024px" viewBox="0 0 1440 1024" version="1.1" xmlns="http://www.w3.org/2000/svg" xmlns:xlink="http://www.w3.org/1999/xlink">
    <title>1-Climb the chart</title>
    <defs>
        <linearGradient x1="50%" y1="0%" x2="50%" y2="100%" id="linearGradient-1">
            <stop stop-color="#F12535" offset="0%"></stop>
            <stop stop-color="#FF73B7" offset="100%"></stop>
        </linearGradient>
        <linearGradient x1="50%" y1="0%" x2="50%" y2="100%" id="linearGradient-2">
            <stop stop-color="#F12535" offset="0%"></stop>
            <stop stop-color="#FF73B7" offset="100%"></stop>
        </linearGradient>
        <linearGradient x1="50%" y1="0%" x2="50%" y2="100%" id="linearGradient-3">
            <stop stop-color="#F12535" offset="0%"></stop>
            <stop stop-color="#FF73B7" offset="100%"></stop>
        </linearGradient>
        <linearGradient x1="50%" y1="0%" x2="50%" y2="100%" id="linearGradient-4">
            <stop stop-color="#649CFB" offset="0%"></stop>
            <stop stop-color="#A788FF" offset="100%"></stop>
        </linearGradient>
        <linearGradient x1="50%" y1="100%" x2="50%" y2="3.061617e-15%" id="linearGradient-5">
            <stop stop-color="#FFFFFF" offset="0%"></stop>
            <stop stop-color="#D8E6EC" offset="100%"></stop>
        </linearGradient>
        <linearGradient x1="50%" y1="100%" x2="50%" y2="3.061617e-15%" id="linearGradient-6">
            <stop stop-color="#FFFFFF" offset="0%"></stop>
            <stop stop-color="#D8E6EC" offset="100%"></stop>
        </linearGradient>
        <linearGradient x1="50%" y1="0%" x2="50%" y2="100%" id="linearGradient-7">
            <stop stop-color="#F12535" offset="0%"></stop>
            <stop stop-color="#FF73B7" offset="100%"></stop>
        </linearGradient>
        <linearGradient x1="50%" y1="100%" x2="50%" y2="3.061617e-15%" id="linearGradient-8">
            <stop stop-color="#F12535" offset="0%"></stop>
            <stop stop-color="#FF73B7" offset="100%"></stop>
        </linearGradient>
        <linearGradient x1="50%" y1="37.6587507%" x2="50%" y2="160.350478%" id="linearGradient-9">
            <stop stop-color="#FFD7C2" offset="0%"></stop>
            <stop stop-color="#FFA5A5" offset="100%"></stop>
        </linearGradient>
        <linearGradient x1="50%" y1="37.6587507%" x2="50%" y2="160.350478%" id="linearGradient-10">
            <stop stop-color="#FFD7C2" offset="0%"></stop>
            <stop stop-color="#FFA5A5" offset="100%"></stop>
        </linearGradient>
        <linearGradient x1="50%" y1="0%" x2="50%" y2="100%" id="linearGradient-11">
            <stop stop-color="#485295" offset="0%"></stop>
            <stop stop-color="#303565" offset="100%"></stop>
        </linearGradient>
        <linearGradient x1="50%" y1="0%" x2="50%" y2="100%" id="linearGradient-12">
            <stop stop-color="#485295" offset="0%"></stop>
            <stop stop-color="#303565" offset="100%"></stop>
        </linearGradient>
        <linearGradient x1="50%" y1="100%" x2="50%" y2="3.061617e-15%" id="linearGradient-13">
            <stop stop-color="#AD7DFE" offset="0%"></stop>
            <stop stop-color="#5B62D9" offset="100%"></stop>
        </linearGradient>
        <linearGradient x1="50%" y1="0%" x2="50%" y2="100%" id="linearGradient-14">
            <stop stop-color="#AD7DFE" offset="0%"></stop>
            <stop stop-color="#5B62D9" offset="100%"></stop>
        </linearGradient>
        <linearGradient x1="50%" y1="37.6587507%" x2="50%" y2="160.350478%" id="linearGradient-15">
            <stop stop-color="#FFD7C2" offset="0%"></stop>
            <stop stop-color="#FFA5A5" offset="100%"></stop>
        </linearGradient>
        <linearGradient x1="50%" y1="0%" x2="50%" y2="100%" id="linearGradient-16">
            <stop stop-color="#F12535" offset="0%"></stop>
            <stop stop-color="#FF73B7" offset="100%"></stop>
        </linearGradient>
        <linearGradient x1="50%" y1="0%" x2="50%" y2="100%" id="linearGradient-17">
            <stop stop-color="#F12535" offset="0%"></stop>
            <stop stop-color="#FF73B7" offset="100%"></stop>
        </linearGradient>
        <linearGradient x1="50%" y1="100%" x2="50%" y2="3.061617e-15%" id="linearGradient-18">
            <stop stop-color="#AD7DFE" offset="0%"></stop>
            <stop stop-color="#5B62D9" offset="100%"></stop>
        </linearGradient>
        <linearGradient x1="50%" y1="0%" x2="50%" y2="100%" id="linearGradient-19">
            <stop stop-color="#FFFFFF" offset="0%"></stop>
            <stop stop-color="#D8E6EC" offset="100%"></stop>
        </linearGradient>
        <linearGradient x1="50%" y1="0%" x2="50%" y2="100%" id="linearGradient-20">
            <stop stop-color="#FFFFFF" offset="0%"></stop>
            <stop stop-color="#D8E6EC" offset="100%"></stop>
        </linearGradient>
        <linearGradient x1="50%" y1="0%" x2="50%" y2="100%" id="linearGradient-21">
            <stop stop-color="#FFFFFF" offset="0%"></stop>
            <stop stop-color="#D8E6EC" offset="100%"></stop>
        </linearGradient>
        <linearGradient x1="50%" y1="0%" x2="50%" y2="100%" id="linearGradient-22">
            <stop stop-color="#FFFFFF" offset="0%"></stop>
            <stop stop-color="#D8E6EC" offset="100%"></stop>
        </linearGradient>
        <linearGradient x1="50%" y1="0%" x2="50%" y2="100%" id="linearGradient-23">
            <stop stop-color="#F12535" offset="0%"></stop>
            <stop stop-color="#FF73B7" offset="100%"></stop>
        </linearGradient>
        <linearGradient x1="50%" y1="0%" x2="50%" y2="100%" id="linearGradient-24">
            <stop stop-color="#FFFFFF" offset="0%"></stop>
            <stop stop-color="#D8E6EC" offset="100%"></stop>
        </linearGradient>
        <linearGradient x1="50%" y1="0%" x2="50%" y2="100%" id="linearGradient-25">
            <stop stop-color="#FFFFFF" offset="0%"></stop>
            <stop stop-color="#D8E6EC" offset="100%"></stop>
        </linearGradient>
        <linearGradient x1="50%" y1="0%" x2="50%" y2="100%" id="linearGradient-26">
            <stop stop-color="#FFFFFF" offset="0%"></stop>
            <stop stop-color="#D8E6EC" offset="100%"></stop>
        </linearGradient>
        <linearGradient x1="50%" y1="0%" x2="50%" y2="100%" id="linearGradient-27">
            <stop stop-color="#FFFFFF" offset="0%"></stop>
            <stop stop-color="#D8E6EC" offset="100%"></stop>
        </linearGradient>
        <linearGradient x1="50%" y1="0%" x2="50%" y2="100%" id="linearGradient-28">
            <stop stop-color="#F12535" offset="0%"></stop>
            <stop stop-color="#FF73B7" offset="100%"></stop>
        </linearGradient>
        <linearGradient x1="50%" y1="0%" x2="50%" y2="100%" id="linearGradient-29">
            <stop stop-color="#AD7DFE" offset="0%"></stop>
            <stop stop-color="#5B62D9" offset="100%"></stop>
        </linearGradient>
        <linearGradient x1="50%" y1="37.6587507%" x2="50%" y2="160.350478%" id="linearGradient-30">
            <stop stop-color="#FFD7C2" offset="0%"></stop>
            <stop stop-color="#FFA5A5" offset="100%"></stop>
        </linearGradient>
        <linearGradient x1="50%" y1="0%" x2="50%" y2="100%" id="linearGradient-31">
            <stop stop-color="#F12535" offset="0%"></stop>
            <stop stop-color="#FF73B7" offset="100%"></stop>
        </linearGradient>
        <linearGradient x1="50%" y1="0%" x2="50%" y2="100%" id="linearGradient-32">
            <stop stop-color="#F12535" offset="0%"></stop>
            <stop stop-color="#FF73B7" offset="100%"></stop>
        </linearGradient>
        <linearGradient x1="50%" y1="0%" x2="50%" y2="100%" id="linearGradient-33">
            <stop stop-color="#F12535" offset="0%"></stop>
            <stop stop-color="#FF73B7" offset="100%"></stop>
        </linearGradient>
    </defs>
    <g id="1-Climb-the-chart" stroke="none" stroke-width="1" fill="none" fill-rule="evenodd">
        <rect fill="#FAFEFF" x="0" y="0" width="1440" height="1024"></rect>
        <g id="Chart_BG" transform="translate(155.000000, 182.000000)">
            <path d="M77,7 L1110,7 C1112.76142,7 1115,9.23857625 1115,12 C1115,14.7614237 1112.76142,17 1110,17 L77,17 C74.2385763,17 72,14.7614237 72,12 C72,9.23857625 74.2385763,7 77,7 Z" id="Shape" fill="#E3EEFF" fill-rule="nonzero"></path>
            <path d="M77,117 L1110,117 C1112.76142,117 1115,119.238576 1115,122 C1115,124.761424 1112.76142,127 1110,127 L77,127 C74.2385763,127 72,124.761424 72,122 C72,119.238576 74.2385763,117 77,117 Z" id="Shape" fill="#E3EEFF" fill-rule="nonzero"></path>
            <path d="M77,227 L1110,227 C1112.76142,227 1115,229.238576 1115,232 C1115,234.761424 1112.76142,237 1110,237 L77,237 C74.2385763,237 72,234.761424 72,232 C72,229.238576 74.2385763,227 77,227 Z" id="Shape" fill="#E3EEFF" fill-rule="nonzero"></path>
            <path d="M77,337 L1110,337 C1112.76142,337 1115,339.238576 1115,342 C1115,344.761424 1112.76142,347 1110,347 L77,347 C74.2385763,347 72,344.761424 72,342 C72,339.238576 74.2385763,337 77,337 Z" id="Shape" fill="#E3EEFF" fill-rule="nonzero"></path>
            <path d="M77,447 L1110,447 C1112.76142,447 1115,449.238576 1115,452 C1115,454.761424 1112.76142,457 1110,457 L77,457 C74.2385763,457 72,454.761424 72,452 C72,449.238576 74.2385763,447 77,447 Z" id="Shape" fill="#E3EEFF" fill-rule="nonzero"></path>
            <path d="M77,557 L1110,557 C1112.76142,557 1115,559.238576 1115,562 C1115,564.761424 1112.76142,567 1110,567 L77,567 C74.2385763,567 72,564.761424 72,562 C72,559.238576 74.2385763,557 77,557 Z" id="Shape" fill="#E3EEFF" fill-rule="nonzero"></path>
            <path d="M338.126048,344.593409 L163.977803,580.929693 C160.703086,585.373806 154.445739,586.321788 150.001626,583.047072 C149.128976,582.404045 148.366734,581.623352 147.744759,580.735574 C142.918481,573.846775 142.743102,564.721775 147.301113,557.652613 L329.911319,274.436686 C347.868202,246.58679 385.001934,238.566918 412.851831,256.523801 C413.813275,257.143716 414.756794,257.791 415.68123,258.46486 L582.308286,379.926295 C604.34644,395.990827 634.446389,395.171974 655.578538,377.933016 L909.832297,170.520611 L891.932227,145.698076 C885.471558,136.738883 887.497012,124.238615 896.456205,117.777946 C899.862252,115.321772 903.955001,114 908.154281,114 L1034.12044,114 C1045.16614,114 1054.12044,122.954305 1054.12044,134 C1054.12044,136.125311 1053.78168,138.237037 1053.11692,140.255708 L1012.72065,262.925547 C1009.26572,273.417012 997.959931,279.121248 987.468467,275.666316 C984.122042,274.564308 981.126109,272.597855 978.783859,269.965965 L952.315813,240.224896 L655.802241,474.270357 C632.89768,492.349491 600.307293,491.328704 578.579058,471.851594 L426.477692,335.508491 C401.802925,313.390121 363.869593,315.462491 341.751223,340.137257 C340.472377,341.563909 339.262599,343.050997 338.126048,344.593409 Z" id="Shape" fill="#CDE2FF"></path>
            <path d="M10,0 L32,0 C37.5228475,0 42,4.4771525 42,10 L42,14 C42,19.5228475 37.5228475,24 32,24 L10,24 C4.4771525,24 0,19.5228475 0,14 L0,10 C0,4.4771525 4.4771525,0 10,0 Z" id="Shape" fill="#E3EEFF" fill-rule="nonzero"></path>
            <path d="M10,110 L32,110 C37.5228475,110 42,114.477153 42,120 L42,124 C42,129.522847 37.5228475,134 32,134 L10,134 C4.4771525,134 0,129.522847 0,124 L0,120 C0,114.477153 4.4771525,110 10,110 Z" id="Shape" fill="#E3EEFF" fill-rule="nonzero"></path>
            <path d="M10,220 L32,220 C37.5228475,220 42,224.477153 42,230 L42,234 C42,239.522847 37.5228475,244 32,244 L10,244 C4.4771525,244 0,239.522847 0,234 L0,230 C0,224.477153 4.4771525,220 10,220 Z" id="Shape" fill="#E3EEFF" fill-rule="nonzero"></path>
            <path d="M10,330 L32,330 C37.5228475,330 42,334.477153 42,340 L42,344 C42,349.522847 37.5228475,354 32,354 L10,354 C4.4771525,354 0,349.522847 0,344 L0,340 C0,334.477153 4.4771525,330 10,330 Z" id="Shape" fill="#E3EEFF" fill-rule="nonzero"></path>
            <path d="M10,440 L32,440 C37.5228475,440 42,444.477153 42,450 L42,454 C42,459.522847 37.5228475,464 32,464 L10,464 C4.4771525,464 0,459.522847 0,454 L0,450 C0,444.477153 4.4771525,440 10,440 Z" id="Shape" fill="#E3EEFF" fill-rule="nonzero"></path>
            <path d="M10,550 L32,550 C37.5228475,550 42,554.477153 42,560 L42,564 C42,569.522847 37.5228475,574 32,574 L10,574 C4.4771525,574 0,569.522847 0,564 L0,560 C0,554.477153 4.4771525,550 10,550 Z" id="Shape" fill="#E3EEFF" fill-rule="nonzero"></path>
            <path d="M82,635 L164,635 C169.522847,635 174,639.477153 174,645 L174,649 C174,654.522847 169.522847,659 164,659 L82,659 C76.4771525,659 72,654.522847 72,649 L72,645 C72,639.477153 76.4771525,635 82,635 Z" id="Shape" fill="#E3EEFF" fill-rule="nonzero"></path>
            <circle id="Shape" fill="#CDE2FF" cx="263.5" cy="182.5" r="19.5"></circle>
            <circle id="Shape" fill="#CDE2FF" cx="950.5" cy="29.5" r="19.5"></circle>
            <circle id="Shape" fill="#CDE2FF" cx="638.5" cy="229.5" r="19.5"></circle>
            <path d="M284,635 L366,635 C371.522847,635 376,639.477153 376,645 L376,649 C376,654.522847 371.522847,659 366,659 L284,659 C278.477153,659 274,654.522847 274,649 L274,645 C274,639.477153 278.477153,635 284,635 Z" id="Shape" fill="#E3EEFF" fill-rule="nonzero"></path>
            <path d="M486,635 L568,635 C573.522847,635 578,639.477153 578,645 L578,649 C578,654.522847 573.522847,659 568,659 L486,659 C480.477153,659 476,654.522847 476,649 L476,645 C476,639.477153 480.477153,635 486,635 Z" id="Shape" fill="#E3EEFF" fill-rule="nonzero"></path>
            <path d="M688,635 L770,635 C775.522847,635 780,639.477153 780,645 L780,649 C780,654.522847 775.522847,659 770,659 L688,659 C682.477153,659 678,654.522847 678,649 L678,645 C678,639.477153 682.477153,635 688,635 Z" id="Shape" fill="#E3EEFF" fill-rule="nonzero"></path>
            <path d="M890,635 L972,635 C977.522847,635 982,639.477153 982,645 L982,649 C982,654.522847 977.522847,659 972,659 L890,659 C884.477153,659 880,654.522847 880,649 L880,645 C880,639.477153 884.477153,635 890,635 Z" id="Shape" fill="#E3EEFF" fill-rule="nonzero"></path>
            <path d="M1042,635 L1124,635 C1129.52285,635 1134,639.477153 1134,645 L1134,649 C1134,654.522847 1129.52285,659 1124,659 L1042,659 C1036.47715,659 1032,654.522847 1032,649 L1032,645 C1032,639.477153 1036.47715,635 1042,635 Z" id="Shape" fill="#E3EEFF" fill-rule="nonzero"></path>
            <polygon id="Path" fill="#CDE2FF" fill-rule="nonzero" points="265.222522 182.256072 74.8651093 561.843988 69.5017344 559.15434 261.776069 175.743928 638.124607 225.881053 949.039915 26.4747377 952.279082 31.5252623 639.512423 232.118947"></polygon>
        </g>
        <g id="Bar-Chart" transform="translate(384.000000, 484.000000)">
            <path d="M20,250 L197,250 C208.045695,250 217,258.954305 217,270 L217,452 L0,452 L0,270 C0,258.954305 8.954305,250 20,250 Z" id="Shape" fill="url(#linearGradient-1)"></path>
            <path d="M514,0 L691,0 C702.045695,0 711,8.954305 711,20 L711,452 L494,452 L494,20 C494,8.954305 502.954305,0 514,0 Z" id="Shape" fill="url(#linearGradient-2)"></path>
            <path d="M267,140 L444,140 C455.045695,140 464,148.954305 464,160 L464,452 L247,452 L247,160 C247,148.954305 255.954305,140 267,140 Z" id="Shape" fill="url(#linearGradient-3)"></path>
        </g>
        <g id="Medals" transform="translate(893.000000, 196.000000)">
            <path d="M36.1160943,103.889387 L124.015345,80.3368542 L158.270613,208.179255 C159.220846,211.725576 157.139436,215.364555 153.621652,216.307142 C151.769085,216.803536 149.790441,216.462232 148.201537,215.372207 L105.185754,185.862366 L82.6879137,232.926529 C81.1099177,236.227604 77.1681187,237.604632 73.883659,236.002208 C72.1539673,235.158325 70.8717831,233.599384 70.3713625,231.731788 L36.1160943,103.889387 Z" id="Shape" fill="url(#linearGradient-4)" fill-rule="nonzero"></path>
            <path d="M129.233869,188.67783 C128.279355,188.525247 127.356407,188.1568 126.537114,187.585367 L112.941768,178.103022 L87.6891005,83.8587848 L100.246136,80.4941372 L129.233869,188.67783 Z" id="Shape" fill="url(#linearGradient-5)" fill-rule="nonzero"></path>
            <path d="M93.6228738,183.277994 L86.5900819,198.287436 C86.1563937,199.213016 85.538146,199.986081 84.8012813,200.583506 L55.8135482,92.3998133 L68.370584,89.0351657 L93.6228738,183.277994 Z" id="Shape" fill="url(#linearGradient-6)" fill-rule="nonzero"></path>
            <path d="M89.7884983,126.464922 L82.9557239,138.032792 C81.0953322,141.182431 77.0322411,142.230509 73.8805559,140.37374 C73.0971478,139.912207 72.4173439,139.294419 71.8834853,138.558856 L64.2967679,128.10569 L53.3007194,136.087948 C50.3392055,138.237772 46.1952951,137.583122 44.0450364,134.625746 C43.46719,133.831001 43.073741,132.917621 42.8932327,131.951871 L40.6179288,119.778603 L27.7025182,122.823043 C24.1400729,123.662788 20.5723641,121.458833 19.7338176,117.900373 C19.4866026,116.85129 19.4995775,115.757623 19.7716151,114.714393 L22.8462675,102.92349 L10.3199855,100.823795 C6.71096978,100.218841 4.27784454,96.8053441 4.88544821,93.1995374 C5.07364152,92.0827095 5.54543432,91.0326173 6.25571874,90.1496596 L14.0546655,80.4547538 L3.78787586,73.7528244 C0.72493131,71.7534031 -0.134214518,67.6510673 1.86891994,64.590001 C2.47886758,63.6579167 3.3141729,62.8944233 4.29756645,62.3701472 L15.7632708,56.2574425 L9.2646827,45.8985969 C7.32163294,42.8013469 8.26066822,38.7154992 11.3620767,36.7726007 C12.2372822,36.2243222 13.2285355,35.8879264 14.2567361,35.790257 L27.6766499,34.5154913 L26.2087956,21.9743527 C25.7837859,18.3431302 28.3860328,15.0535693 32.0210766,14.6269126 C32.9545182,14.5173516 33.9004979,14.6073826 34.7962214,14.8910292 L47.7348715,18.9882809 L51.9045591,6.46150929 C53.0595903,2.99151044 56.8111583,1.11233655 60.2839209,2.26425692 C61.1369626,2.5472121 61.9233559,3.00064029 62.5952455,3.59694852 L72.4696867,12.3606071 L81.6262605,2.34295808 C84.0948025,-0.357723197 88.286306,-0.549124612 90.9882455,1.91545105 C91.6820756,2.54832856 92.2331373,3.3214799 92.6048511,4.18358326 L97.6042213,15.778455 L109.86359,10.1724776 C113.192065,8.65042932 117.123872,10.1114687 118.645527,13.4358005 C119.074933,14.3739141 119.278849,15.3994356 119.241005,16.4305301 L118.792486,28.6508476 L131.778429,28.2117529 C135.43621,28.0880721 138.500103,30.95005 138.621825,34.6041594 C138.658889,35.7168233 138.414469,36.8210161 137.911173,37.8145952 L132.370837,48.7520312 L143.972376,53.2485925 C147.383741,54.57078 149.074724,58.4059693 147.749293,61.8147276 C147.338766,62.8705235 146.664061,63.8036181 145.789686,64.5247986 L135.991455,72.6063286 L144.549633,81.2802241 C147.118056,83.8833755 147.086639,88.0749154 144.479461,90.6422906 C143.710829,91.3991881 142.768928,91.9572436 141.735594,92.2679721 L129.028301,96.0891151 L133.144464,107.769126 C134.359611,111.217223 132.546131,114.998149 129.093944,116.21406 C128.166226,116.540817 127.177452,116.657217 126.199354,116.554817 L112.685368,115.140004 L111.341661,127.986069 C110.961269,131.622684 107.70211,134.264354 104.062127,133.886405 C103.157344,133.792459 102.281718,133.513398 101.489789,133.066604 L89.7884983,126.464922 Z" id="Shape" fill="url(#linearGradient-7)"></path>
            <path d="M88.5373976,119.866151 C61.5973593,127.084712 33.906343,111.097296 26.6877816,84.1572582 C19.4692201,57.21722 35.4566358,29.5262037 62.396674,22.3076422 C89.3367122,15.0890807 117.027729,31.0764964 124.24629,58.0165346 C131.464851,84.9565728 115.477436,112.647589 88.5373976,119.866151 Z M86.4178794,111.956001 C108.989263,105.908017 122.384125,82.7074361 116.336141,60.1360527 C110.288157,37.5646694 87.0875755,24.1698076 64.5161921,30.2177915 C41.9448088,36.2657754 28.5499469,59.4663567 34.5979309,82.03774 C40.6459148,104.609123 63.8464961,118.003985 86.4178794,111.956001 Z" id="Shape" fill="url(#linearGradient-8)"></path>
        </g>
        <g id="Man" transform="translate(251.000000, 186.000000)">
            <path d="M473.409624,98.7995456 C460.853575,112.244272 449.704646,120.107284 439.962837,122.388582 C425.350123,125.810528 423.897717,115.097 411.516064,122.388582 C399.134412,129.680163 333.060592,148.854768 328.904317,154.017237 C324.748041,159.179707 325.218245,218.317711 336.672436,202.84424 C341.430149,196.417042 341.664114,187.743929 345.03297,185.950967 C353.765138,181.30356 369.943182,178.624992 393.567101,177.915265 C388.976926,214.388543 381.869542,241.439599 372.24495,259.068432 C357.808061,285.511682 352.265083,289.73664 349.011311,310.659201 C346.84213,324.607574 344.398162,360.594683 341.679407,418.620528 C314.133554,455.706492 297.353424,491.52243 291.339015,526.068343 L283.735674,535.737959 C280.088109,542.70807 280.088109,547.557397 283.735674,550.285939 C287.38324,553.014482 295.673811,558.237735 308.607387,565.955699 C329.508551,569.288433 338.27035,569.288433 334.892786,565.955699 C331.515221,562.622965 325.408605,559.455798 316.572937,556.454197 L305.617475,532.87085 C341.003664,477.955625 363.212822,447.103127 372.24495,440.313356 C381.277077,433.523586 392.977216,395.657674 407.345365,326.715623 C451.787496,318.311242 477.038424,310.945878 483.098148,304.61953 C474.933886,312.731468 469.206053,320.096832 465.914649,326.715623 C456.387736,345.873596 448.686675,373.796602 433.536843,404.034859 L425.427523,413.170395 C424.405669,421.198492 425.914094,426.643108 429.952797,429.504244 C433.9915,432.365379 445.978784,440.452087 465.914649,453.764367 C484.688797,452.84073 492.24625,450.885559 488.587009,447.898853 C484.927768,444.912147 478.078158,443.072373 468.038177,442.379529 L450.81676,410.049136 L535.945037,285.483253 C545.075652,260.578879 537.949528,249.208915 514.566663,251.373359 C491.183799,253.537803 468.218374,256.102828 445.670389,259.068432 C461.93194,233.557546 472.235288,214.816149 476.580432,202.84424 C483.098148,184.886376 482.341412,155.539351 476.580432,148.105023 C472.739778,143.148804 469.89236,139.139744 468.038177,136.07784 C479.776736,123.272323 486.626347,116.869564 488.587009,116.869564 C490.547672,116.869564 485.488543,110.846224 473.409624,98.7995456 Z" id="Shape" fill="url(#linearGradient-9)" fill-rule="nonzero"></path>
            <path d="M469.951006,73.3463408 C472.068181,57.5836893 484.947312,45.4589961 500.519045,45.4589961 C517.569807,45.4589961 533.467039,40.4173145 537.571935,63.7525796 C541.67683,87.0878447 508.515124,132.028143 500.519045,128.544562 C483.983003,121.34045 476.152006,110.871729 472.54751,99.7510089 C472.467638,99.7524222 472.387595,99.7531318 472.307386,99.7531318 C464.95792,99.7531318 459,93.7952121 459,86.4457456 C459,79.9003908 463.725518,74.4587398 469.951006,73.3463408 L469.951006,73.3463408 Z" id="Path" fill="url(#linearGradient-10)" fill-rule="nonzero"></path>
            <ellipse id="Shape" fill="#423565" fill-rule="nonzero" cx="511" cy="89.5" rx="2" ry="2.5"></ellipse>
            <ellipse id="Shape" fill="#423565" fill-rule="nonzero" cx="529" cy="87.5" rx="2" ry="2.5"></ellipse>
            <path d="M516.074212,61.5684692 C519.260181,67.3217536 527.694823,70.1983958 541.378139,70.1983958 C561.903113,70.1983958 587.965799,21.5617181 551.925216,4.86372213 C527.898161,-6.26827515 510.190782,1.70875973 498.803078,28.7948268 C492.724617,24.3820883 485.304795,23.909937 476.54361,27.3783729 C467.782425,30.8468089 463.846758,38.3090021 464.736607,49.7649524 C452.245536,51.3617247 446,56.5062059 446,65.1983958 C446,70.9152866 451.290361,77.8174337 456.693686,87.4497319 C458.568423,90.7917546 461.249397,97.5463767 464.736607,107.713598 C468.013261,104.723134 470.703951,102.046999 472.808675,99.6851946 C453.13578,86.2237119 467.189273,71.2495627 472.361997,74.7001683 C478.195168,78.5913437 482.257726,83.2440951 484.54967,88.6584224 C494.862362,84.0542016 498.754191,77.9008594 496.225155,70.1983958 C505.043234,74.1531336 511.659587,71.2764914 516.074212,61.5684692 Z" id="Shape" fill="#423565" fill-rule="nonzero"></path>
            <path d="M294.798693,540.596313 C289.418445,539.696581 287.082973,530.103853 285.328006,532.335748 C284.548526,533.327058 276.407632,547.6367 281.878981,551.729513 C285.526547,554.458055 294.388066,559.940867 308.463538,568.177949 C329.570427,569.94127 338.43509,569.156564 335.057525,565.82383 C331.679961,562.491096 325.573345,559.323929 316.737677,556.322328 L308.463538,536.630546 C302.940474,539.874211 298.385526,541.196134 294.798693,540.596313 Z" id="Shape" fill="url(#linearGradient-11)"></path>
            <path d="M431.548863,403.324975 L425.280738,412.797876 C420.0947,419.482481 421.057048,426.236706 428.167781,433.060552 C435.278514,439.884398 445.67624,447.055448 459.360959,454.573701 C482.406377,452.862162 492.099465,450.513039 488.440225,447.526334 C484.780984,444.539628 477.931373,442.699853 467.891392,442.007009 L453.505466,414.999786 C446.742894,417.295583 441.756098,417.538584 438.545078,415.728788 C435.684716,414.116631 435.012098,408.626679 433.546656,403.324975 C433.426888,402.891675 432.760957,402.891675 431.548863,403.324975 Z" id="Shape" fill="url(#linearGradient-12)"></path>
            <path d="M372.665645,258.952226 C355.538737,273.996159 352.685778,289.620434 349.432006,310.542995 C346.178235,331.465555 345.596784,390.111919 334.324034,415.383575 C323.051285,440.655232 311.163753,462.291273 300.323562,484.216091 C289.483371,506.14091 291.824939,495.283712 286.533848,507.646896 C281.242758,520.010079 316.786231,536.244045 326.753299,530.191492 C336.720368,524.13894 334.668639,508.685771 338.31853,502.273317 C357.053734,469.357634 373.799164,453.506385 380.168176,440.655232 C387.777966,425.300487 399.884634,386.872366 416.488182,325.370869 C451.010804,321.811967 471.301977,316.869342 477.361701,310.542995 C469.634831,318.86702 464.125694,326.338428 460.834289,332.957219 C451.307376,352.115192 446.091084,378.154956 434.316745,385.93059 C422.542406,393.706223 438.386093,404.393744 442.912637,407.610401 C447.412406,410.80803 466.238181,412.962548 471.911043,407.610401 C475.692951,404.042303 500.615535,363.423628 546.678793,285.754376 C548.934034,260.591783 538.370223,249.092709 514.987358,251.257153 C491.604494,253.421597 468.639069,255.986622 446.091084,258.952226 C408.55873,248.922937 384.083583,248.922937 372.665645,258.952226 Z" id="Shape" fill="url(#linearGradient-13)"></path>
            <path d="M362.384613,265.00153 C347.947724,291.44478 347.527154,314.359115 380.077393,326.159647 C412.627631,337.960179 467.742255,319.80693 476.831841,310.317408 C469.104971,318.641434 463.595834,326.112842 460.304429,332.731633 C450.777516,351.889606 445.561224,377.92937 433.786885,385.705003 C422.012546,393.480636 437.856233,404.168158 442.382778,407.384815 C446.882547,410.582444 465.708322,412.736962 471.381184,407.384815 C475.163092,403.816717 500.085675,363.198042 546.148933,285.52879 C548.404175,260.366197 537.840363,248.867123 514.457499,251.031567 C491.074634,253.196011 468.109209,255.761035 445.561224,258.72664 C399.734742,245.281067 372.009205,247.372697 362.384613,265.00153 Z" id="Shape" fill="url(#linearGradient-14)"></path>
            <path d="M440.458213,194.932228 C431.921592,194.350954 446.172557,172.274831 474.611611,156.151108 C491.865782,175.576384 498.766035,203.853129 507.605037,204.800052 C510.965238,205.16003 510.965238,201.386113 520.239029,194.932228 C536.461595,183.642502 567.385362,168.015181 562.393306,165.133017 C561.531706,164.635571 544.746056,161.057278 545.164213,150.671441 C545.227519,149.099117 552.793093,137.800397 559.548969,137 C574.62467,143.133432 579.06185,159.659655 576.833409,170.344784 C573.490747,186.372477 519.432517,236.939847 502.330296,236.939847 C485.228074,236.939847 453.263145,195.80414 440.458213,194.932228 Z" id="Shape" fill="url(#linearGradient-15)" fill-rule="nonzero"></path>
            <path d="M440.215533,194.871883 C431.678912,194.290609 448.625178,166.123723 477.064232,150 C488.154323,162.485565 489.001522,183.187064 500.271022,193.858441 C504.58759,197.945909 480.828626,229.235368 475.151583,225.289026 C458.384387,213.633472 449.781587,195.523253 440.215533,194.871883 Z" id="Shape" fill="url(#linearGradient-16)"></path>
            <path d="M434.711289,122.091995 C425.830413,121.654432 421.845413,115.231757 411.622407,121.252107 C399.240755,128.543689 350.076698,134.695723 345.920423,139.858192 C341.764147,145.020662 352.286125,194.074788 365.384376,187.103677 C374.116544,182.456269 383.638911,179.464507 393.951477,178.128391 C387.407598,215.808312 376.330658,242.859367 360.72066,259.281558 C345.110661,275.703749 378.234618,275.279864 460.092529,258.009902 C457.70209,249.764413 457.335875,243.754399 458.993882,239.97986 C465.824039,224.43065 473.779504,211.833641 476.964808,203.057366 C483.482524,185.099503 482.725788,155.752477 476.964808,148.318149 C473.124155,143.361931 470.276736,139.35287 468.422553,136.290967 C471.073803,144.309089 467.930913,148.318149 458.993882,148.318149 C445.588335,148.318149 436.586537,122.184389 434.711289,122.091995 Z" id="Shape" fill="url(#linearGradient-17)"></path>
            <path d="M260.747146,117.47901 L272.040125,108.861648 C273.667281,107.62001 275.815128,107.293491 277.737757,107.995484 L300.323483,116.242019 C302.068712,116.879239 303.420285,118.289013 303.983404,120.059541 L308.080675,132.941958 L421.447365,178.845726 C424.278101,179.991931 425.796219,183.081549 424.973868,186.022739 L397.103209,285.703853 C396.210924,288.895167 392.900511,290.758899 389.709197,289.866613 C389.528332,289.816044 389.349942,289.757011 389.174615,289.689709 L228.648335,228.069443 C225.758152,226.960006 224.186546,223.833794 225.020157,220.852334 L252.855634,121.297046 C253.725178,118.187069 256.951217,116.370839 260.061194,117.240383 C260.294568,117.305634 260.523661,117.38533 260.747146,117.47901 Z" id="Shape" fill="#423565" fill-rule="nonzero"></path>
            <path d="M100.607411,204.333176 L194.092469,194.507501 C199.585062,193.930206 204.505678,197.914843 205.082973,203.407435 L211.145624,261.089705 C211.722919,266.582298 207.738282,271.502914 202.24569,272.080209 L108.760631,281.905884 C103.268039,282.483179 98.3474225,278.498543 97.7701278,273.00595 L91.7074769,215.32368 C91.1301821,209.831087 95.1148184,204.910471 100.607411,204.333176 L100.607411,204.333176 Z" id="Shape" fill="url(#linearGradient-18)"></path>
            <path d="M129.358867,249.196945 L135.344251,248.778406 C136.17066,248.720618 136.887444,249.343708 136.945232,250.170117 L137.78231,262.140886 C137.840098,262.967295 137.217007,263.684079 136.390598,263.741867 L130.405214,264.160406 C129.578805,264.218194 128.862021,263.595103 128.804233,262.768694 L127.967155,250.797926 C127.909367,249.971517 128.532458,249.254733 129.358867,249.196945 Z" id="Shape" fill="url(#linearGradient-19)" fill-rule="nonzero"></path>
            <path d="M144.55257,237.107637 L150.537955,236.689098 C151.364364,236.63131 152.081147,237.2544 152.138936,238.080809 L153.743334,261.024782 C153.801123,261.851192 153.178032,262.567975 152.351623,262.625763 L146.366239,263.044302 C145.53983,263.10209 144.823046,262.479 144.765258,261.652591 L143.160859,238.708618 C143.103071,237.882208 143.726161,237.165425 144.55257,237.107637 Z" id="Shape" fill="url(#linearGradient-20)" fill-rule="nonzero"></path>
            <path d="M158.539441,222.095393 L164.524825,221.676854 C165.351234,221.619066 166.068017,222.242156 166.125806,223.068565 L168.706795,259.978435 C168.764583,260.804844 168.141493,261.521628 167.315084,261.579416 L161.3297,261.997955 C160.50329,262.055743 159.786507,261.432653 159.728719,260.606244 L157.147729,223.696374 C157.089941,222.869965 157.713031,222.153181 158.539441,222.095393 Z" id="Shape" fill="url(#linearGradient-21)" fill-rule="nonzero"></path>
            <path d="M167.040506,207.544392 L167.046645,207.566005 L167.660188,216.340078 C167.702544,216.945801 167.245955,217.471166 166.640367,217.513513 C166.034779,217.55586 165.509517,217.099153 165.46716,216.493429 L165.045166,210.458622 C150.460115,227.578086 127.251091,242.049779 127.007311,242.200403 C126.673034,242.422589 126.24425,242.444871 125.888741,242.25853 C125.533231,242.072188 125.30752,241.706851 125.29973,241.305473 C125.292335,240.904094 125.504067,240.530493 125.852276,240.330855 C126.08985,240.18287 149.130393,225.813553 163.470631,208.918186 L157.254715,209.352845 C156.649127,209.395192 156.123865,208.938485 156.081508,208.332762 C156.039152,207.727039 156.495741,207.201674 157.101329,207.159327 L165.873438,206.545921 C165.926802,206.548525 165.979882,206.555278 166.032198,206.56612 C166.114201,206.567236 166.195791,206.577954 166.275302,206.598055 C166.349386,206.625721 166.420074,206.661748 166.485996,206.705437 C166.538195,206.727276 166.588572,206.753236 166.636652,206.783072 L166.652726,206.801786 C166.709236,206.855993 166.7597,206.916172 166.803231,206.981267 C166.847198,207.028596 166.886972,207.079653 166.922106,207.133865 C166.94119,207.183053 166.956796,207.233521 166.968809,207.284896 C167.003271,207.368122 167.027351,207.455277 167.040506,207.544392 Z" id="Shape" fill="url(#linearGradient-22)" fill-rule="nonzero"></path>
            <path d="M5.74619707,178.842966 L121.195998,114.848096 C126.02639,112.170567 132.112762,113.915806 134.790292,118.746197 L173.575061,188.715774 C176.252591,193.546165 174.507352,199.632537 169.67696,202.310067 L54.2271591,266.304937 C49.3967678,268.982466 43.3103954,267.237227 40.6328658,262.406836 L1.8480962,192.437259 C-0.829433396,187.606868 0.91580581,181.520496 5.74619707,178.842966 Z" id="Shape" fill="url(#linearGradient-23)"></path>
            <path d="M88.6269198,163.023311 C88.0461359,163.358627 87.3514599,163.242721 87.0753175,162.764428 C86.7991752,162.286136 87.0461359,161.626576 87.6269198,161.29126 L100.246147,154.005546 C100.826931,153.67023 101.521607,153.786136 101.797749,154.264428 C102.073892,154.742721 101.826931,155.402281 101.246147,155.737597 L88.6269198,163.023311 Z" id="Shape" fill="url(#linearGradient-24)" fill-rule="nonzero"></path>
            <path d="M105.215218,162.683657 C105.813083,162.338479 106.521607,162.44639 106.797749,162.924682 C107.073892,163.402975 106.813083,164.07053 106.215218,164.415708 L95.3899001,170.665708 C94.7920343,171.010886 94.0835107,170.902975 93.8073684,170.424682 C93.531226,169.94639 93.7920343,169.278835 94.3899001,168.933657 L105.215218,162.683657 Z" id="Shape" fill="url(#linearGradient-25)" fill-rule="nonzero"></path>
            <path d="M110.246147,171.326054 C110.826931,170.990738 111.521607,171.106644 111.797749,171.584936 C112.073892,172.063229 111.826931,172.722789 111.246147,173.058105 L98.6269198,180.343819 C98.0461359,180.679135 97.3514599,180.563229 97.0753175,180.084936 C96.7991752,179.606644 97.0461359,178.947084 97.6269198,178.611768 L110.246147,171.326054 Z" id="Shape" fill="url(#linearGradient-24)" fill-rule="nonzero"></path>
            <path d="M85.1208349,197.379165 C80.1349919,200.257743 71.4243054,195.65608 66.8445554,187.723721 C62.8730554,180.844881 64.0663551,174.893959 70.1208349,171.398403 C76.1753147,167.902847 81.9252393,169.844231 85.8971143,176.723721 C90.4766143,184.655647 90.1066778,194.500587 85.1208349,197.379165 Z" id="Shape" fill="url(#linearGradient-26)" fill-rule="nonzero"></path>
            <path d="M107.292552,191.357175 C108.594982,191.390905 109.792653,192.108694 110.449052,193.248929 L111.566072,195.183665 C112.488882,196.778905 112.133261,198.799143 110.726619,199.95249 C105.466369,204.322254 99.8942012,208.299027 94.0538476,211.851597 C88.0570548,215.133206 81.8269847,217.970459 75.4125329,220.341087 C73.7102966,220.982635 71.7828128,220.280385 70.8627578,218.683445 L69.7410995,216.740676 C69.0841233,215.606098 69.0589366,214.215472 69.6746606,213.072401 C71.4351225,209.809264 75.1689277,203.021416 77.700716,199.353772 C80.6015761,200.439999 83.8089923,200.247801 86.5326695,198.824534 C89.1196672,197.183445 90.8873207,194.512796 91.4017814,191.468065 C95.8286797,191.127373 103.578,191.263434 107.292552,191.357175 Z" id="Shape" fill="url(#linearGradient-27)" fill-rule="nonzero"></path>
            <path d="M203.816272,149.844136 L296.089227,131.90809 C301.510604,130.854281 306.75978,134.394895 307.813589,139.816272 L318.880511,196.750648 C319.93432,202.172026 316.393706,207.421201 310.972329,208.47501 L218.699373,226.411056 C213.277996,227.464865 208.028821,223.924251 206.975012,218.502874 L195.90809,161.568497 C194.854281,156.14712 198.394895,150.897945 203.816272,149.844136 Z" id="Shape" fill="url(#linearGradient-28)"></path>
            <path d="M266.757875,128.526673 L267.161599,128.695905 L278.454579,120.078543 C280.081734,118.836905 282.229581,118.510386 284.152211,119.212379 L306.737937,127.458914 C308.483165,128.096134 309.834738,129.505908 310.397857,131.276436 L314.495129,144.158853 L427.371289,189.863998 C430.403269,191.09169 431.893147,194.521753 430.720888,197.575593 L395.929006,288.211543 C394.741479,291.305156 391.270929,292.850344 388.177316,291.662818 L227.601483,230.02353 C224.507869,228.836003 222.962681,225.365453 224.150208,222.27184 L258.836874,131.909985 C260.024401,128.816371 263.494951,127.271183 266.588564,128.45871 C266.645343,128.480505 266.701786,128.503162 266.757875,128.526673 Z" id="Shape" fill="url(#linearGradient-29)"></path>
            <path d="M382.20093,134.309096 C359.307956,142.223109 331.996023,151.069754 329.371587,154.32954 C325.67236,158.924315 294.743639,224.854224 294.003088,252.72812 C293.941557,255.044137 294.743639,260.823012 301.485887,267.291157 C308.228134,273.759302 310.073231,269.926696 315.001867,272.092862 C316.897896,272.926179 319.874972,271.325611 323.933093,267.291157 C317.195537,263.931237 314.000156,261.361188 314.346948,259.581012 C314.421122,259.20026 315.748455,257.795559 318.328948,255.366908 C320.955743,257.929615 322.534216,259.025707 323.064366,258.655183 C324.78335,257.45378 322.781259,251.688849 320.515782,249.701765 C318.250305,247.71468 310.212453,249.390522 310.153816,247.843144 C309.860049,240.090843 325.685516,218.630014 337.139706,203.156543 C341.89742,196.729345 342.131385,188.056232 345.500241,186.26327 C353.44488,182.034999 367.552914,179.436454 387.824343,178.467635 C389.83379,178.371598 395.563177,129.689818 382.20093,134.309096 Z" id="Shape" fill="url(#linearGradient-30)" fill-rule="nonzero"></path>
            <ellipse id="Shape" fill="#423565" fill-rule="nonzero" cx="532.5" cy="80" rx="5.5" ry="2"></ellipse>
            <ellipse id="Shape" fill="#423565" fill-rule="nonzero" cx="508.5" cy="80" rx="5.5" ry="2"></ellipse>
            <path d="M522.37963,82.5478742 C522.353209,82.2729987 522.554622,82.0287498 522.829497,82.0023289 C523.104373,81.9759081 523.348622,82.1773205 523.375043,82.452196 C524.106131,90.058253 525.075686,94.8437714 526.23934,96.7310616 C527.008484,97.9785114 526.680709,99.0387177 525.343833,99.6027703 C524.205964,100.082858 522.263643,100.260008 519.481509,100.157014 C519.205556,100.146798 518.990133,99.9148122 519.000349,99.6388589 C519.010565,99.3629055 519.24255,99.1474826 519.518504,99.1576984 C522.164405,99.2556494 523.988391,99.0892922 524.955098,98.6814204 C525.722799,98.3575134 525.837871,97.9853076 525.388133,97.2558929 C524.114022,95.1894539 523.125977,90.3126776 522.37963,82.5478742 Z" id="Shape" fill="#EF6949" fill-rule="nonzero"></path>
            <path d="M507.003066,101.554935 C506.97275,101.280462 507.170679,101.033381 507.445152,101.003066 C507.719626,100.97275 507.966706,101.170679 507.997022,101.445152 C508.387029,104.976224 509.849217,106.64427 512.4477,106.64427 C512.723842,106.64427 512.9477,106.868128 512.9477,107.14427 C512.9477,107.420413 512.723842,107.64427 512.4477,107.64427 C509.280515,107.64427 507.444266,105.5495 507.003066,101.554935 Z" id="Shape" fill="#EF6949" fill-rule="nonzero"></path>
            <path d="M465.987096,88.1650072 C465.924499,88.4339612 465.655724,88.6012468 465.38677,88.5386501 C465.117816,88.4760534 464.950531,88.2072784 465.013127,87.9383244 C466.276336,82.5108011 468.151107,80.1447091 470.708446,81.2765551 C472.991209,82.2868773 475.530934,85.7783032 478.419117,91.775792 C478.538929,92.0245886 478.434366,92.3234048 478.18557,92.4432166 C477.936773,92.5630284 477.637957,92.4584656 477.518145,92.2096691 C474.730083,86.4200876 472.294778,83.0722102 470.303726,82.1909958 C468.58725,81.4313052 467.124705,83.2771401 465.987096,88.1650072 Z" id="Shape" fill="#EF6949" fill-rule="nonzero"></path>
            <path d="M411.900441,122.536422 C399.518788,129.828004 350.076698,134.630436 345.920423,139.792906 C341.764147,144.955375 352.286125,194.009502 365.384376,187.03839 C378.482628,180.067279 397.868475,175.911901 407,173.091141 C416.131525,170.27038 422.123447,116.516072 411.900441,122.536422 Z" id="Shape" fill="url(#linearGradient-31)"></path>
            <path d="M474.69008,86.0641729 C474.964871,86.0914518 475.16552,86.3363283 475.138241,86.61112 C475.110962,86.8859117 474.866086,87.0865605 474.591294,87.0592816 C471.737154,86.775948 470.732064,87.376286 471.072279,88.8735687 C471.133464,89.1428472 470.964772,89.4107415 470.695493,89.4719273 C470.426215,89.5331131 470.158321,89.3644206 470.097135,89.0951421 C469.561648,86.7384668 471.260545,85.7237193 474.69008,86.0641729 Z" id="Shape" fill="#EF6949" fill-rule="nonzero"></path>
            <path d="" id="Shape" fill-rule="nonzero"></path>
            <path d="M558.618241,48.347252 C563.663348,45.0936443 564.919189,39.2369564 562.025373,33.7327779 C561.896869,33.4883574 561.990838,33.1860426 562.235259,33.0575388 C562.479679,32.929035 562.781994,33.023004 562.910498,33.2674245 C566.036617,39.213455 564.658152,45.6420078 559.160215,49.1876473 C557.192266,50.456785 553.747037,51.8360999 550.16763,52.835852 C551.825724,55.1235844 552.288535,57.4471093 550.915725,59.1138366 C547.8709,62.8105562 541.706121,64.1258293 532.447096,63.1398396 C532.172506,63.1105987 531.973611,62.8642951 532.002852,62.5897053 C532.032093,62.3151155 532.278397,62.1162209 532.552987,62.1454619 C541.51129,63.0994277 547.366339,61.8502362 550.143843,58.4780712 C551.210512,57.1830293 550.701916,55.1622524 549.118624,53.1168594 C547.629997,53.4985147 546.140804,53.8068157 544.746582,54.006927 C541.828191,54.4258004 539.422377,54.3775302 537.755203,53.7844101 C535.748767,53.0705932 534.829729,51.5642306 535.257413,49.3704567 C535.683146,47.1866896 537.188251,46.1248927 539.367862,46.2165607 C541.206603,46.2938928 543.474246,47.1955026 545.653942,48.6494054 C547.174417,49.6635942 548.48409,50.8073201 549.493567,51.9838962 C553.124215,51.0024519 556.665352,49.6066774 558.618241,48.347252 Z M545.099038,49.4813197 C543.05885,48.1204718 540.955589,47.2842199 539.325842,47.2156775 C537.618968,47.1438914 536.565419,47.8871323 536.238934,49.5618079 C535.908435,51.2570811 536.538776,52.2902508 538.090386,52.8422573 C539.572644,53.3695907 541.83251,53.4149327 544.604509,53.0170708 C545.81641,52.8431278 547.103946,52.5845633 548.399221,52.2663233 C547.508729,51.2963861 546.3907,50.3428853 545.099038,49.4813197 Z" id="Shape" fill="#FFFFFF" fill-rule="nonzero"></path>
            <path d="" id="Shape" fill-rule="nonzero"></path>
            <path d="" id="Shape" fill-rule="nonzero"></path>
            <path d="M551.903448,158.940775 C552.027561,159.187454 551.928202,159.48804 551.681523,159.612154 C551.434845,159.736267 551.134258,159.636908 551.010145,159.390229 C548.869631,155.135898 548.416094,152.038407 549.757832,150.090693 C550.990668,148.301065 553.445864,145.656074 557.13378,142.138205 C557.333594,141.947604 557.650089,141.955073 557.84069,142.154887 C558.031291,142.354701 558.023822,142.671196 557.824008,142.861797 C554.182584,146.335317 551.764909,148.939887 550.581344,150.657992 C549.506682,152.21801 549.911283,154.981292 551.903448,158.940775 Z" id="Shape" fill="#EF6949" fill-rule="nonzero"></path>
            <path d="M557.404378,161.551328 C557.561377,161.778498 557.504493,162.089928 557.277324,162.246927 C557.050155,162.403926 556.738724,162.347042 556.581725,162.119873 C553.643691,157.868703 553.176961,154.681108 555.368273,152.675596 C557.330525,150.879723 559.867194,148.693123 562.979027,146.114988 C563.19167,145.938814 563.506869,145.968378 563.683043,146.181022 C563.859217,146.393666 563.829653,146.708865 563.617009,146.885039 C560.516859,149.453495 557.992078,151.629847 556.043414,153.413285 C554.323809,154.987086 554.715217,157.660264 557.404378,161.551328 Z" id="Shape" fill="#EF6949" fill-rule="nonzero"></path>
            <path d="M564.779906,159.235561 C564.650551,158.99159 564.743466,158.688949 564.987437,158.559594 C565.231408,158.430239 565.534049,158.523154 565.663404,158.767126 C567.126246,161.526136 566.929118,163.436795 564.908031,164.176707 C563.470067,164.70314 561.465566,163.708254 560.154483,162.033368 C558.718153,160.198481 558.536981,158.101179 560.094637,156.675596 C562.056888,154.879723 564.593557,152.693123 567.70539,150.114988 C567.918034,149.938814 568.233233,149.968378 568.409407,150.181022 C568.585581,150.393666 568.556016,150.708865 568.343373,150.885039 C565.243222,153.453495 562.718442,155.629847 560.769777,157.413285 C559.661463,158.427626 559.792894,159.949112 560.941919,161.416971 C562.015706,162.788715 563.618116,163.584033 564.564248,163.237658 C565.871259,162.759166 565.997807,161.532598 564.779906,159.235561 Z" id="Shape" fill="#EF6949" fill-rule="nonzero"></path>
            <path d="M458.665341,148.635219 C454.027304,138.610377 450.923571,130.86436 449.354143,125.39717 C447.784714,119.929981 447.784714,117.487535 449.354143,118.069832 C443.611406,114.051552 439.321029,114.051552 436.483013,118.069832 C433.644997,122.088113 436.141072,136.495504 443.971237,161.292003 L458.665341,148.635219 Z" id="Shape" fill="url(#linearGradient-32)"></path>
            <path d="M458.917935,148.635219 C467.8577,148.067949 470.911859,143.895602 468.080414,136.118178 C468.810642,135.172764 469.359585,134.549388 469.727242,134.24805 C472.795232,141.287422 473.582995,147.05825 472.090531,151.560534 C470.598068,156.062817 468.620471,160.836731 466.157742,165.882276 L458.917935,148.635219 Z" id="Shape" fill="url(#linearGradient-33)"></path>
            <polygon id="Shape" fill="#EF6949" fill-rule="nonzero" points="474.464865 104.252079 477.586645 125.356812 485.055374 118.700917"></polygon>
        </g>
    </g>
</svg>
