<?xml version="1.0" encoding="utf-8"?>
<!-- Generator: Adobe Illustrator 22.0.0, SVG Export Plug-In . SVG Version: 6.00 Build 0)  -->
<svg version="1.1" id="图层_1" xmlns="http://www.w3.org/2000/svg" xmlns:xlink="http://www.w3.org/1999/xlink" x="0px" y="0px"
	 viewBox="0 0 338.9 141.5" style="enable-background:new 0 0 338.9 141.5;" xml:space="preserve">
<style type="text/css">
	.st0{fill:#FFFFFF;}
</style>
<g>
	<g>
		<path class="st0" d="M138.3,105.1h-3.2c-1.8,0-3.2-1.5-3.2-3.2V80.3c0-1.8,1.5-3.2,3.2-3.2h3.2c1.8,0,3.2,1.5,3.2,3.2v21.6
			C141.5,103.7,140.1,105.1,138.3,105.1z"/>
		<g>
			<path class="st0" d="M92.2,60.6v41.3c0,1.8,1.5,3.2,3.2,3.2h3.2c1.8,0,3.2-1.5,3.2-3.2V60.6c0-1.8-1.5-3.2-3.2-3.2h-3.2
				C93.7,57.3,92.2,58.8,92.2,60.6z"/>
			<path class="st0" d="M98.6,47.5h-3.2c-1.8,0-3.2-1.5-3.2-3.2v-3.2c0-1.8,1.5-3.2,3.2-3.2h3.2c1.8,0,3.2,1.5,3.2,3.2v3.2
				C101.9,46.1,100.4,47.5,98.6,47.5z"/>
		</g>
		<g>
			<path class="st0" d="M171.8,60.6v41.3c0,1.8,1.5,3.2,3.2,3.2h3.2c1.8,0,3.2-1.5,3.2-3.2V60.6c0-1.8-1.5-3.2-3.2-3.2H175
				C173.3,57.4,171.8,58.8,171.8,60.6z"/>
			<path class="st0" d="M178.2,47.5H175c-1.8,0-3.2-1.5-3.2-3.2v-3.2c0-1.8,1.5-3.2,3.2-3.2h3.2c1.8,0,3.2,1.5,3.2,3.2v3.2
				C181.4,46.1,180,47.5,178.2,47.5z"/>
		</g>
		<path class="st0" d="M155.6,37.9c-1.8,0-3.2,1.5-3.2,3.2v17.6c0,1.5-0.3,2.9-0.7,4.3c-1.9,6.1-7.9,10.5-14.9,10.5
			c-7,0-12.9-4.4-14.9-10.4c-0.5-1.4-0.7-2.8-0.7-4.3V41.1c0-1.8-1.5-3.2-3.2-3.2h-3.2c-1.8,0-3.2,1.5-3.2,3.2v17.6
			c0,13.2,11.3,23.9,25.2,23.9c13.9,0,25.2-10.7,25.2-23.9V41.1c0-1.8-1.5-3.2-3.2-3.2H155.6z"/>
		<path class="st0" d="M203.7,79.3c0.9,0.5,2,1,3.1,1.5c1.5,0.6,3.2,0,4-1.4c0.4-0.7,0.9-1.5,1.3-2.3c1.1-1.8,0.2-4.1-1.8-4.8
			c-4.9-2-8.3-6.1-9.3-11c0-0.1,0-0.2-0.1-0.4c0,0,0-0.1,0-0.1c-0.3-1.5-0.2-3,0-4.5c0-0.1,0.1-0.3,0.1-0.4c0,0,0,0,0,0
			c1.4-6.8,7.7-12,15.4-12c7.9,0,14.4,5.6,15.4,12.8c0,0.1,0,0.1,0,0.2c0,0.1,0,0.2,0,0.3c0.1,1.2,0.1,2.4-0.1,3.6
			c-0.3,1.9-1,3.7-2,5.3l-19.8,34c-1.3,2.2,0.3,4.9,2.8,4.9l3.7,0c1.2,0,2.2-0.6,2.8-1.6L238,71.1c3.4-5.4,4.5-11.8,2.9-17.9
			c-1.6-6.4-5.8-11.7-11.8-15c-5.7-3.2-12.5-4.1-18.9-2.6c-6.5,1.5-12,5.4-15.5,10.8c-3.4,5.4-4.5,11.8-2.9,17.9
			C193.5,70.7,197.7,76,203.7,79.3z"/>
		<path class="st0" d="M264,79.3c0.9,0.5,2,1,3.1,1.5c1.5,0.6,3.2,0,4-1.4c0.4-0.7,0.9-1.5,1.3-2.3c1.1-1.8,0.2-4.1-1.8-4.8
			c-4.9-2-8.3-6.1-9.3-11c0-0.1,0-0.2-0.1-0.4c0,0,0-0.1,0-0.1c-0.3-1.5-0.2-3,0-4.5c0-0.1,0.1-0.3,0.1-0.4c0,0,0,0,0,0
			c1.4-6.8,7.7-12,15.4-12c7.9,0,14.4,5.6,15.4,12.8c0,0.1,0,0.1,0,0.2c0,0.1,0,0.2,0,0.3c0.1,1.2,0.1,2.4-0.1,3.6
			c-0.3,1.9-1,3.7-2,5.3l-19.8,34c-1.3,2.2,0.3,4.9,2.8,4.9l3.7,0c1.2,0,2.2-0.6,2.8-1.6l18.7-32.4c3.4-5.4,4.5-11.8,2.9-17.9
			c-1.6-6.4-5.8-11.7-11.8-15c-5.7-3.2-12.5-4.1-18.9-2.6c-6.5,1.5-12,5.4-15.5,10.8c-3.4,5.4-4.5,11.8-2.9,17.9
			C253.8,70.7,258,76,264,79.3z"/>
		<path class="st0" d="M57,95.6C57,95.6,57,95.6,57,95.6c-4.9-0.5-5.5-3.9-5.6-5.2c0-0.1,0-0.2,0-0.2c0-0.1,0-0.2,0-0.3c0,0,0,0,0,0
			h0c0-0.1,0-0.3,0-0.4c-0.1-10.5,0-38.8,0-48.4c0-1.8-1.4-3.2-3.2-3.2H45c-1.8,0-3.2,1.4-3.2,3.2c0,9.6-0.1,37.9,0,48.5
			c0,0.2,0,0.4,0,0.6c0,10.3,9,14.9,14.6,15.1h22.8c1.8,0,3.2-1.5,3.2-3.2v-3.2c0-1.8-1.5-3.2-3.2-3.2H57z"/>
	</g>
</g>
</svg>
